<?xml version="1.0" encoding="UTF-8"?>
<svg width="26px" height="26px" viewBox="0 0 26 26" version="1.1" xmlns="http://www.w3.org/2000/svg" xmlns:xlink="http://www.w3.org/1999/xlink">
    <!-- Generator: Sketch 51.1 (57501) - http://www.bohemiancoding.com/sketch -->
    <title>申请灰色</title>
    <desc>Created with Sketch.</desc>
    <defs></defs>
    <g id="打卡系统" stroke="none" stroke-width="1" fill="none" fill-rule="evenodd">
        <g id="上班打卡初始界面" transform="translate(-278.000000, -621.000000)">
            <g id="Group-Copy" transform="translate(278.000000, 621.000000)">
                <rect id="Rectangle-3" x="0" y="0" width="26" height="26"></rect>
                <path d="M20.5,16 C20.5,15.7238576 20.7238576,15.5 21,15.5 C21.2761424,15.5 21.5,15.7238576 21.5,16 L21.5,21 C21.5,22.3807119 20.3807119,23.5 19,23.5 L6,23.5 C4.61928813,23.5 3.5,22.3807119 3.5,21 L3.5,5 C3.5,3.61928813 4.61928813,2.5 6,2.5 L19,2.5 C20.3807119,2.5 21.5,3.61928813 21.5,5 C21.5,5.27614237 21.2761424,5.5 21,5.5 C20.7238576,5.5 20.5,5.27614237 20.5,5 C20.5,4.17157288 19.8284271,3.5 19,3.5 L6,3.5 C5.17157288,3.5 4.5,4.17157288 4.5,5 L4.5,21 C4.5,21.8284271 5.17157288,22.5 6,22.5 L19,22.5 C19.8284271,22.5 20.5,21.8284271 20.5,21 L20.5,16 Z M8.5,10 L16.5,10 C16.7761424,10 17,10.2238576 17,10.5 C17,10.7761424 16.7761424,11 16.5,11 L8.5,11 C8.22385763,11 8,10.7761424 8,10.5 C8,10.2238576 8.22385763,10 8.5,10 Z M8.5,15 L13.5,15 C13.7761424,15 14,15.2238576 14,15.5 C14,15.7761424 13.7761424,16 13.5,16 L8.5,16 C8.22385763,16 8,15.7761424 8,15.5 C8,15.2238576 8.22385763,15 8.5,15 Z M22.4120149,5.34202014 C22.9309928,5.53091265 23.1985799,6.104755 23.0096874,6.62373291 L18.5634255,18.839737 L16.9396926,20.3771021 L16.6840403,18.1556967 L21.1303021,5.93969262 C21.3191947,5.42071472 21.893037,5.15312763 22.4120149,5.34202014 Z" id="Combined-Shape" fill="#9B9B9B" fill-rule="nonzero"></path>
            </g>
        </g>
    </g>
</svg>