<?xml version="1.0" encoding="UTF-8"?>
<svg width="26px" height="26px" viewBox="0 0 26 26" version="1.1" xmlns="http://www.w3.org/2000/svg" xmlns:xlink="http://www.w3.org/1999/xlink">
    <!-- Generator: Sketch 51.2 (57519) - http://www.bohemiancoding.com/sketch -->
    <title>打卡</title>
    <desc>Created with Sketch.</desc>
    <defs></defs>
    <g id="打卡系统" stroke="none" stroke-width="1" fill="none" fill-rule="evenodd">
        <g id="上班打卡初始界面" transform="translate(-70.000000, -621.000000)">
            <g id="Group" transform="translate(70.000000, 621.000000)">
                <rect id="Rectangle-3" x="0" y="0" width="26" height="26"></rect>
                <path d="M13,19.75 C12.9288577,19.75 11.7009345,19.1476723 10.2928943,18.0625883 C9.62051679,17.5444312 8.90706676,16.91619 8.2588947,16.1908851 C7.00785777,14.7909741 6,13.029473 6,11 C6,7.13400675 9.13400675,4 13,4 C16.8659932,4 20,7.13400675 20,11 C20,16.1357117 13.1706848,19.75 13,19.75 Z M13,14 C14.6568542,14 16,12.6568542 16,11 C16,9.34314575 14.6568542,8 13,8 C11.3431458,8 10,9.34314575 10,11 C10,12.6568542 11.3431458,14 13,14 Z M4.54666272,15.897186 C4.80185848,15.7916885 5.09425818,15.9130429 5.19975573,16.1682386 C5.30525327,16.4234344 5.18389888,16.7158341 4.92870311,16.8213316 C3.3419956,17.4772741 2.5,18.273225 2.5,19 C2.5,20.7952178 7.18815107,22.5 13,22.5 C18.8118489,22.5 23.5,20.7952178 23.5,19 C23.5,18.22857 22.5517419,17.3831229 20.7932177,16.7107894 C20.5352843,16.6121742 20.4061314,16.3231344 20.5047466,16.065201 C20.6033618,15.8072676 20.8924016,15.6781147 21.150335,15.7767299 C23.255501,16.5815943 24.5,17.6911636 24.5,19 C24.5,21.6230602 19.3384156,23.5 13,23.5 C6.66158443,23.5 1.5,21.6230602 1.5,19 C1.5,17.755523 2.62583741,16.6912523 4.54666272,15.897186 Z" id="Combined-Shape" fill="#467DB9"></path>
            </g>
        </g>
    </g>
</svg>