<?xml version="1.0" encoding="UTF-8"?>
<svg width="32px" height="35px" viewBox="0 0 32 35" version="1.1" xmlns="http://www.w3.org/2000/svg" xmlns:xlink="http://www.w3.org/1999/xlink">
    <!-- Generator: Sketch 51.2 (57519) - http://www.bohemiancoding.com/sketch -->
    <title>Combined Shape</title>
    <desc>Created with Sketch.</desc>
    <defs>
        <linearGradient x1="50%" y1="0%" x2="50%" y2="100%" id="linearGradient-1">
            <stop stop-color="#D8EFFF" offset="0%"></stop>
            <stop stop-color="#88C5FF" offset="100%"></stop>
        </linearGradient>
    </defs>
    <g id="打卡系统" stroke="none" stroke-width="1" fill="none" fill-rule="evenodd">
        <g id="休息无须打卡" transform="translate(-172.000000, -280.000000)" fill="url(#linearGradient-1)" fill-rule="nonzero">
            <g id="Group-3" transform="translate(172.000000, 280.000000)">
                <path d="M18.0124727,7.93743818 C18.0124727,8.32136858 17.7626046,8.66992945 17.3843482,8.97684559 C16.9133987,9.35906456 17.2991397,10.1206501 17.8921445,9.98373583 C19.6256762,9.58326163 21.2440612,8.87758272 21.2440612,7.63622681 C21.2440612,4.96411689 13.0231717,5.21854924 13.0231717,3.05302207 C13.0231717,2.28059746 13.7589583,1.6216976 14.7048874,1.09400726 C15.2869533,0.769406391 14.9812392,-0.106274398 14.324328,0.0106732078 C11.8388892,0.453933113 9.24406121,1.39407769 9.24406124,3.39017343 C9.24406124,7.22092025 18.0124727,6.23627854 18.0124727,7.93743818 Z M32,17 C32,25.836556 24.836556,32 16,32 C7.163444,32 0,25.836556 0,17 C-6.76353751e-17,16.4477153 0.44771525,16 1,16 L31,16 C31.5522847,16 32,16.4477153 32,17 Z M25.6620267,33 C25.9833264,33 26.2440499,33.2259667 26.2440499,33.5047889 C26.2451691,33.6598688 26.1632249,33.8066265 26.0222098,33.902093 C25.4524656,34.2848528 23.4268446,35 16.2444649,35 C9.06167588,35 7.0360549,34.2848528 6.46590132,33.902093 C6.32428386,33.8070238 6.24406124,33.6601632 6.24406124,33.5047889 C6.24406122,33.2259667 6.50478472,33 6.82649377,33 L25.6620267,33 Z M1,12 L31,12 C31.5522847,12 32,12.4477153 32,13 C32,13.5522847 31.5522847,14 31,14 L1,14 C0.44771525,14 6.76353751e-17,13.5522847 0,13 C-6.76353751e-17,12.4477153 0.44771525,12 1,12 Z" id="Combined-Shape"></path>
            </g>
        </g>
    </g>
</svg>