<?xml version="1.0" encoding="UTF-8"?>
<svg width="36px" height="36px" viewBox="0 0 36 36" version="1.1" xmlns="http://www.w3.org/2000/svg" xmlns:xlink="http://www.w3.org/1999/xlink">
    <!-- Generator: Sketch 51.1 (57501) - http://www.bohemiancoding.com/sketch -->
    <title>加班</title>
    <desc>Created with Sketch.</desc>
    <defs></defs>
    <g id="打卡系统" stroke="none" stroke-width="1" fill="none" fill-rule="evenodd">
        <g id="申请" transform="translate(-292.000000, -94.000000)" fill="#71C56D">
            <g id="Group-3-Copy" transform="translate(292.000000, 94.000000)">
                <path d="M18,36 C8.0588745,36 0,27.9411255 0,18 C0,8.0588745 8.0588745,0 18,0 C27.9411255,0 36,8.0588745 36,18 C36,27.9411255 27.9411255,36 18,36 Z M18,29.5 C24.3512746,29.5 29.5,24.3512746 29.5,18 C29.5,11.6487254 24.3512746,6.5 18,6.5 C11.6487254,6.5 6.5,11.6487254 6.5,18 C6.5,24.3512746 11.6487254,29.5 18,29.5 Z M18,30.5 C11.0964406,30.5 5.5,24.9035594 5.5,18 C5.5,11.0964406 11.0964406,5.5 18,5.5 C24.9035594,5.5 30.5,11.0964406 30.5,18 C30.5,24.9035594 24.9035594,30.5 18,30.5 Z M18,19 L24,19 C24.2761424,19 24.5,19.2238576 24.5,19.5 C24.5,19.7761424 24.2761424,20 24,20 L17.5,20 C17.2238576,20 17,19.7761424 17,19.5 L17,13.5 C17,13.2238576 17.2238576,13 17.5,13 C17.7761424,13 18,13.2238576 18,13.5 L18,19 Z" id="Combined-Shape"></path>
            </g>
        </g>
    </g>
</svg>