<?xml version="1.0" encoding="UTF-8"?>
<svg width="36px" height="36px" viewBox="0 0 36 36" version="1.1" xmlns="http://www.w3.org/2000/svg" xmlns:xlink="http://www.w3.org/1999/xlink">
    <!-- Generator: Sketch 51.1 (57501) - http://www.bohemiancoding.com/sketch -->
    <title>申诉</title>
    <desc>Created with Sketch.</desc>
    <defs></defs>
    <g id="打卡系统" stroke="none" stroke-width="1" fill="none" fill-rule="evenodd">
        <g id="申请" transform="translate(-45.000000, -94.000000)" fill="#4698EC">
            <g id="Group-5" transform="translate(45.000000, 94.000000)">
                <path d="M18,36 C8.0588745,36 0,27.9411255 0,18 C0,8.0588745 8.0588745,0 18,0 C27.9411255,0 36,8.0588745 36,18 C36,27.9411255 27.9411255,36 18,36 Z M10,23.5 L11.6096118,23.5 L12.3428491,26.4329493 C12.3706492,26.5441494 12.4173602,26.6497423 12.4809413,26.7451139 C12.7872938,27.2046426 13.4081631,27.3288165 13.8676918,27.022464 L19.1513878,23.5 L26,23.5 C27.3807119,23.5 28.5,22.3807119 28.5,21 L28.5,11 C28.5,9.61928813 27.3807119,8.5 26,8.5 L10,8.5 C8.61928813,8.5 7.5,9.61928813 7.5,11 L7.5,21 C7.5,22.3807119 8.61928813,23.5 10,23.5 Z M10,9.5 L26,9.5 C26.8284271,9.5 27.5,10.1715729 27.5,11 L27.5,21 C27.5,21.8284271 26.8284271,22.5 26,22.5 L18.8486122,22.5 L13.3129916,26.1904137 L12.3903882,22.5 L10,22.5 C9.17157288,22.5 8.5,21.8284271 8.5,21 L8.5,11 C8.5,10.1715729 9.17157288,9.5 10,9.5 Z M13.5717012,16.2579926 C14.5600268,17.8987322 16.3347135,18.9237535 18.2860764,18.9237535 C20.2080863,18.9237535 21.9598445,17.9294746 22.9573397,16.3283634 C23.103358,16.0939849 23.0317279,15.7856124 22.7973494,15.6395942 C22.5629709,15.4935759 22.2545984,15.5652061 22.1085801,15.7995846 C21.2918211,17.1105903 19.8591594,17.9237535 18.2860764,17.9237535 C16.689003,17.9237535 15.2375159,17.0854054 14.4282988,15.7420074 C14.2858134,15.5054646 13.9785503,15.4292159 13.7420074,15.5717012 C13.5054646,15.7141866 13.4292159,16.0214497 13.5717012,16.2579926 Z" id="Combined-Shape"></path>
            </g>
        </g>
    </g>
</svg>