<?xml version="1.0" encoding="UTF-8"?>
<svg width="36px" height="36px" viewBox="0 0 36 36" version="1.1" xmlns="http://www.w3.org/2000/svg" xmlns:xlink="http://www.w3.org/1999/xlink">
    <!-- Generator: Sketch 51.1 (57501) - http://www.bohemiancoding.com/sketch -->
    <title>公出</title>
    <desc>Created with Sketch.</desc>
    <defs></defs>
    <g id="打卡系统" stroke="none" stroke-width="1" fill="none" fill-rule="evenodd">
        <g id="申请" transform="translate(-169.000000, -194.000000)" fill="#4698EC">
            <g id="Group-3" transform="translate(169.000000, 194.000000)">
                <path d="M23,18 L23,16.5 C23,16.2238576 22.7761424,16 22.5,16 C22.2238576,16 22,16.2238576 22,16.5 L22,18 L14,18 L14,16.5 C14,16.2238576 13.7761424,16 13.5,16 C13.2238576,16 13,16.2238576 13,16.5 L13,18 L8.5,18 L8.5,13 C8.5,12.1715729 9.17157288,11.5 10,11.5 L26,11.5 C26.8284271,11.5 27.5,12.1715729 27.5,13 L27.5,18 L23,18 Z M23,19 L27.5,19 L27.5,24 C27.5,24.8284271 26.8284271,25.5 26,25.5 L10,25.5 C9.17157288,25.5 8.5,24.8284271 8.5,24 L8.5,19 L13,19 L13,20.5 C13,20.7761424 13.2238576,21 13.5,21 C13.7761424,21 14,20.7761424 14,20.5 L14,19 L22,19 L22,20.5 C22,20.7761424 22.2238576,21 22.5,21 C22.7761424,21 23,20.7761424 23,20.5 L23,19 Z M12.5,10.5 L10,10.5 C8.61928813,10.5 7.5,11.6192881 7.5,13 L7.5,24 C7.5,25.3807119 8.61928813,26.5 10,26.5 L26,26.5 C27.3807119,26.5 28.5,25.3807119 28.5,24 L28.5,13 C28.5,11.6192881 27.3807119,10.5 26,10.5 L23.5,10.5 L23.5,10 C23.5,8.61928813 22.3807119,7.5 21,7.5 L15,7.5 C13.6192881,7.5 12.5,8.61928813 12.5,10 L12.5,10.5 Z M13.5,10.5 L13.5,10 C13.5,9.17157288 14.1715729,8.5 15,8.5 L21,8.5 C21.8284271,8.5 22.5,9.17157288 22.5,10 L22.5,10.5 L13.5,10.5 Z M18,36 C8.0588745,36 0,27.9411255 0,18 C0,8.0588745 8.0588745,0 18,0 C27.9411255,0 36,8.0588745 36,18 C36,27.9411255 27.9411255,36 18,36 Z" id="Combined-Shape"></path>
            </g>
        </g>
    </g>
</svg>