<?xml version="1.0" encoding="UTF-8"?>
<svg width="36px" height="36px" viewBox="0 0 36 36" version="1.1" xmlns="http://www.w3.org/2000/svg" xmlns:xlink="http://www.w3.org/1999/xlink">
    <!-- Generator: Sketch 51.1 (57501) - http://www.bohemiancoding.com/sketch -->
    <title>出差</title>
    <desc>Created with Sketch.</desc>
    <defs></defs>
    <g id="打卡系统" stroke="none" stroke-width="1" fill="none" fill-rule="evenodd">
        <g id="申请" transform="translate(-45.000000, -194.000000)" fill="#4698EC">
            <g id="Group-3" transform="translate(45.000000, 194.000000)">
                <path d="M18,36 C27.9411255,36 36,27.9411255 36,18 C36,8.0588745 27.9411255,0 18,0 C8.0588745,0 0,8.0588745 0,18 C0,27.9411255 8.0588745,36 18,36 Z M24.7226499,11.5839749 C25.5175007,11.0540743 26.8013042,10.80997 28.0062123,10.8784961 C28.5682377,10.9104599 29.060685,11.0110483 29.4085485,11.1764916 C29.9290223,11.4240281 30.2040424,11.8766159 29.9472136,12.3902735 C28.8394491,14.6058025 25.572368,18.2193465 20.7773501,21.4160251 C16.700882,24.1336705 12.443184,25.5529032 8.0128163,25.6665024 C7.87580574,25.6700155 7.74335955,25.617133 7.64644661,25.5202201 L4.64644661,22.5202201 C4.30249613,22.1762696 4.60239832,21.5935028 5.08219949,21.6734697 C7.94091427,22.1499222 13.2800824,20.7854927 14.3459175,19.3779067 C11.9238249,17.9370829 9.5,14.6414048 9.5,13.5 C9.5,12.1959402 10.8691719,11.6091523 13.1856953,12.5357617 C13.3194074,12.5892465 13.423565,12.6977878 13.4714952,12.8335899 C14.0530573,14.4813493 15.6602273,15.5345171 18.3728024,15.9743107 C21.9723521,13.358712 24.0823377,11.8998794 24.7226499,11.5839749 Z M20.2226499,20.5839749 C22.8644188,18.8227956 25.0224505,16.9493539 26.7137919,15.0786513 C27.8384577,13.8347185 28.6687122,12.677271 29.0184807,12.0100104 C29.0247383,12.0865997 29.0179777,12.0980731 28.9790509,12.0795596 C28.7660846,11.9782732 28.3932954,11.9021264 27.9494316,11.8768828 C26.9420003,11.8195877 25.8647658,12.0244147 25.2236068,12.4472136 C24.5941622,12.7619359 22.4261337,14.2628787 18.7940858,16.904368 C18.6881746,16.9813944 18.5562707,17.0137936 18.4267257,16.9946017 C15.3729231,16.5421865 13.408897,15.3451727 12.6116294,13.38544 C11.0337104,12.7903828 10.5,13.0376081 10.5,13.5 C10.5,14.2908927 12.9801084,17.5977039 15.2236068,18.7194531 C15.4332152,18.8242573 15.5419093,19.0605822 15.4850713,19.2879345 C15.002984,21.2162836 9.93533291,22.8156243 6.31415033,22.7737102 L8.20073188,24.6602918 C12.3604932,24.512168 16.3650873,23.1556832 20.2226499,20.5839749 Z" id="Oval-5"></path>
            </g>
        </g>
    </g>
</svg>