<?xml version="1.0" encoding="UTF-8"?>
<svg width="36px" height="36px" viewBox="0 0 36 36" version="1.1" xmlns="http://www.w3.org/2000/svg" xmlns:xlink="http://www.w3.org/1999/xlink">
    <!-- Generator: Sketch 51.1 (57501) - http://www.bohemiancoding.com/sketch -->
    <title>请加</title>
    <desc>Created with Sketch.</desc>
    <defs></defs>
    <g id="打卡系统" stroke="none" stroke-width="1" fill="none" fill-rule="evenodd">
        <g id="申请" transform="translate(-169.000000, -94.000000)">
            <g id="Group-4" transform="translate(169.000000, 94.000000)">
                <circle id="Oval-5" fill="#F0A747" cx="18" cy="18" r="18"></circle>
                <path d="M23,25.5 C20.5147186,25.5 18.5,23.4852814 18.5,21 C18.5,18.5147186 20.5147186,16.5 23,16.5 C25.4852814,16.5 27.5,18.5147186 27.5,21 C27.5,23.4852814 25.4852814,25.5 23,25.5 Z M23,24.5 C24.9329966,24.5 26.5,22.9329966 26.5,21 C26.5,19.0670034 24.9329966,17.5 23,17.5 C21.0670034,17.5 19.5,19.0670034 19.5,21 C19.5,22.9329966 21.0670034,24.5 23,24.5 Z M24,10.5 L27,10.5 C28.3807119,10.5 29.5,11.6192881 29.5,13 L29.5,25 C29.5,26.3807119 28.3807119,27.5 27,27.5 L9,27.5 C7.61928813,27.5 6.5,26.3807119 6.5,25 L6.5,13 C6.5,11.6192881 7.61928813,10.5 9,10.5 L12,10.5 L12,9.5 C12,9.22385763 12.2238576,9 12.5,9 C12.7761424,9 13,9.22385763 13,9.5 L13,10.5 L23,10.5 L23,9.5 C23,9.22385763 23.2238576,9 23.5,9 C23.7761424,9 24,9.22385763 24,9.5 L24,10.5 Z M24,11.5 L24,12.5 C24,12.7761424 23.7761424,13 23.5,13 C23.2238576,13 23,12.7761424 23,12.5 L23,11.5 L13,11.5 L13,12.5 C13,12.7761424 12.7761424,13 12.5,13 C12.2238576,13 12,12.7761424 12,12.5 L12,11.5 L9,11.5 C8.17157288,11.5 7.5,12.1715729 7.5,13 L7.5,25 C7.5,25.8284271 8.17157288,26.5 9,26.5 L27,26.5 C27.8284271,26.5 28.5,25.8284271 28.5,25 L28.5,13 C28.5,12.1715729 27.8284271,11.5 27,11.5 L24,11.5 Z M23.5,21 L24.5,21 C24.7761424,21 25,21.2238576 25,21.5 C25,21.7761424 24.7761424,22 24.5,22 L23,22 C22.7238576,22 22.5,21.7761424 22.5,21.5 L22.5,19.5 C22.5,19.2238576 22.7238576,19 23,19 C23.2761424,19 23.5,19.2238576 23.5,19.5 L23.5,21 Z M11.5,17 C11.2238576,17 11,16.7761424 11,16.5 C11,16.2238576 11.2238576,16 11.5,16 L18.5,16 C18.7761424,16 19,16.2238576 19,16.5 C19,16.7761424 18.7761424,17 18.5,17 L11.5,17 Z M11.5,22 C11.2238576,22 11,21.7761424 11,21.5 C11,21.2238576 11.2238576,21 11.5,21 L15.5,21 C15.7761424,21 16,21.2238576 16,21.5 C16,21.7761424 15.7761424,22 15.5,22 L11.5,22 Z" id="Combined-Shape" fill="#FFFFFF" fill-rule="nonzero"></path>
            </g>
        </g>
    </g>
</svg>